<svg width="200" height="200" viewBox="0 0 200 200" fill="none" xmlns="http://www.w3.org/2000/svg">
<g id="favicon">
<ellipse id="Ellipse 2" rx="35.4582" ry="35.4582" transform="matrix(0.758375 0.651819 -0.651826 0.758369 100.006 100.005)" fill="#F47402"/>
<g id="loaderC">
<path id="Ellipse 1" d="M148.644 55.5161C153.866 61.224 157.207 66.3977 159.379 71.9253C161.177 76.4992 162.246 81.4975 162.804 87.5159L149.102 91.2482C147.45 81.9918 143.206 73.3456 136.804 66.3464C129.017 57.8332 118.519 52.2833 107.098 50.6426C95.6776 49.0019 84.0416 51.3718 74.1726 57.3486C64.3036 63.3253 56.8122 72.539 52.975 83.4198C49.1378 94.3007 49.1921 106.175 53.1287 117.021C57.0653 127.866 64.6405 137.011 74.5638 142.897C84.487 148.783 96.1443 151.046 107.549 149.301C117.297 147.81 126.346 143.469 133.583 136.879L145.567 147.641C135.814 156.97 123.397 163.11 109.976 165.163C94.9016 167.47 79.4935 164.478 66.3772 156.698C53.261 148.918 43.2483 136.83 38.045 122.496C32.8418 108.161 32.77 92.465 37.8419 78.0831C42.9138 63.7012 52.8156 51.5228 65.8601 43.623C78.9046 35.7231 94.2848 32.5907 109.38 34.7593C124.475 36.9279 138.351 44.2635 148.644 55.5161Z" stroke="#020202" stroke-width="10"/>
</g>
<g id="loader">
<path id="Rectangle 1" d="M106.073 117.546C94.4941 122.213 81.6624 114.522 80.3198 102.111V102.111C79.0003 89.9114 89.5171 79.7309 101.667 81.4461L171.261 91.2709L172.015 90.9672L106.073 117.546Z" fill="white"/>
<path id="Rectangle 2" d="M98.8072 109.387C93.0893 110.856 87.3976 106.914 86.7627 101.045V101.045C86.134 95.2324 90.7569 90.1914 96.6017 90.3157L167.177 91.8171L167.853 91.6433L98.8072 109.387Z" fill="black"/>
</g>
</g>
</svg>
